<svg xmlns="http://www.w3.org/2000/svg" id="Layer_5" viewBox="139.56 151.9 1672.29 349.24"><defs><style>.cls-1,.cls-2{stroke-width:0px;}.cls-2{fill:#0068ff;}</style></defs><path class="cls-2" d="m538.5,250.98c3.22-27.64-7-52-28.03-66.02-21.45-14.3-49.72-14.61-75.87-1.39-9.53-13.68-22.43-22.97-37.81-27.13-16.41-4.44-34.77-2.64-51.7,5.07-4.12,1.87-8.05,4.04-11.75,6.48-7.59-9.04-18.42-14.78-30.55-15.89-11.59-1.06-22.62,2.23-31.07,9.01-12.63-6.75-27.69-7.55-41.29-1.79-13.41,5.67-22.95,16.49-26.83,29.94-20.79.79-38.28,9.88-48.9,25.75-13.23,19.75-13.87,46.61-1.93,72.66-11.67,14.49-15.39,33.5-12.01,50.61,4.75,24,21.92,39.97,43.78,42.25.53,7.84,4.03,15.42,10.18,21.54,11.95,11.89,31.11,16.05,51.13,11.41,11.39,10.1,22.57,15.08,33.87,15.08,2.9,0,5.81-.33,8.73-.98,12.71-2.85,23.58-11.38,34.89-20.71,15.87,11.92,32.93,15.43,50.11,10.41,7.44,25.47,19.88,43.66,38.58,56.65,20.07,13.93,47.73,22.28,89.52,26.99.69.1,1.37.17,2.03.22l2.04-21.9c-.48-.05-.97-.11-1.46-.16-14.39-2.2-49.62-26.39-56.07-67.11,10.72.51,22.64-1.39,32.46-7.14,9.5-5.56,16.21-14.12,19.59-24.92,19.81-13.57,30.49-32.45,29.53-51.55,15.63-11.14,24.65-25.04,25.61-39.61.63-9.6-1.95-23.58-16.78-37.77Zm-5.18,36.33c-.4,6.2-4.1,12.56-10.63,18.5-4.09-6.66-9.87-12.45-17.14-17.11-3.32-2.13-6.89-3.99-10.69-5.57-3.53-5.95-4.27-16.56-4.02-21.3v-.03l-9.41-.52-1.57-.09-10.98-.65c-.08,1.34-.39,8.26,1.06,16.49-2.81-.29-5.69-.49-8.66-.58l-.68,21.99c24.52.76,42.24,10.58,46.26,25.63,3.67,13.76-4.78,28.92-22.04,39.56l-4,2.47-.98,4.59c-1.5,6.98-4.91,11.94-10.4,15.15-9.73,5.69-23.34,4.64-30.11,2.54l-14.26-4.41v14.92c0,28.31,11.44,52.29,26.42,69.91-35.73-11.66-51.94-32.03-59.69-68.8l-3.04-14.41-12.95,7c-12.05,6.51-23.15,6.55-34.38-.04,13.36-9.58,27.85-16.74,46.38-16.74v-22c-32.01,0-53.88,15.82-73.54,32.02l-2.77,2.28c-22.64,18.75-32.98,27.31-54.8,5.37l-4.77-4.79-6.42,2.08c-10.78,3.49-26.48,4.46-35.27-4.29-1.93-1.92-4.92-5.9-3.31-10.97,3.38-10.62,21.5-17.24,37.33-19.9l-3.64-21.7c-11.72,1.97-20.98,4.91-28.31,8.34-.15-3.12-.53-6.31-1.24-9.49l-21.47,4.81c1.67,7.46.31,15.66-1.1,21.16-11.02-.68-22.71-7.28-26.15-24.72-3.51-17.73,4.36-39.7,29.91-46.06l-5.31-21.34c-6.1,1.52-11.59,3.67-16.47,6.34-6.35-17.11-5.55-33.7,2.5-45.7,7.82-11.69,21.61-17.3,38.83-15.81l11.2.97.72-11.22c.64-9.76,6.34-17.84,15.27-21.61,9.15-3.87,19.51-2.28,27.04,4.14l9.02,7.68,6.99-9.55c4.11-5.61,11.11-8.54,18.73-7.85,6.34.58,11.99,3.63,15.91,8.4-4.21,4.78-7.79,10-10.64,15.58-1.2,2.35-2.25,4.72-3.16,7.12-27.19,13.4-47.12,12.37-47.33,12.36l-.73,10.97-.8,10.97c.18.02,1.12.08,2.71.08,6.04,0,21.56-.88,41.9-8.57.31,7.95,2.07,15.98,5.28,23.94l20.4-8.23c-8.45-20.94-2.7-50.25,29.89-65.09,33.26-15.15,56.73,2.37,66.72,21.97l5.57,10.92,10.26-6.71c21.21-13.9,44.77-15.6,61.51-4.44,15.03,10.02,21.63,28.7,17.65,49.96l-1.2,6.42,5.05,4.12c6.54,5.34,14.19,13.76,13.55,23.54Z"/><circle class="cls-2" cx="282.23" cy="292.26" r="18.58" transform="translate(-123.99 285.17) rotate(-45)"/><path class="cls-2" d="m359.16,292.26c0,10.26-8.31,18.58-18.57,18.58s-18.58-8.32-18.58-18.58,8.31-18.58,18.58-18.58,18.57,8.32,18.57,18.58Z"/><circle class="cls-2" cx="397.34" cy="292.26" r="18.58" transform="translate(-24.73 547.51) rotate(-67.5)"/><path class="cls-1" d="m722.95,421.8c-51.04,0-81.36-32.48-81.36-83.21s30.32-84.14,82.29-84.14c40.83,0,67.13,22.89,71.15,57.23.31,1.86-1.24,3.4-3.09,3.4h-36.19c-1.86,0-3.71-1.24-4.02-3.4-3.4-17.32-14.85-25.98-27.84-25.98-23.51.31-34.65,17.32-34.65,52.59s11.45,52.28,34.65,52.59c15.47.31,27.22-10.52,29.39-30.93.31-1.86,1.86-3.4,3.71-3.4h37.12c1.86,0,3.4,1.55,3.09,3.4-3.71,35.88-32.79,61.87-74.24,61.87Z"/><path class="cls-1" d="m892.16,288.79c-15.16,0-31.55,12.06-36.19,34.96l1.24,90.64c0,1.86-1.55,3.4-3.4,3.4h-39.6c-1.86,0-3.4-1.55-3.4-3.4l1.55-105.18-1.55-104.56c0-1.86,1.55-3.4,3.4-3.4h39.6c1.86,0,3.4,1.55,3.4,3.4l-.93,71.77c10.83-14.54,27.22-21.65,48.26-21.65,35.88,0,57.85,21.34,56.92,68.05l-.31,34.03,1.24,57.54c0,1.86-1.55,3.4-3.4,3.4h-40.83c-1.86,0-3.4-1.55-3.4-3.4l1.24-56.92-.31-40.21c-.31-19.18-10.83-28.46-23.51-28.46Z"/><path class="cls-1" d="m1094.79,417.78c-1.86,0-3.4-1.55-3.4-3.4l.62-15.16c-11.14,13.61-26.91,21.65-47.02,21.65-45.16,0-68.98-35.88-68.98-82.29s26.6-83.21,69.91-83.21c19.8,0,35.27,7.12,46.09,20.42l-.62-13.92c-.31-1.86,1.24-3.4,3.09-3.4h40.21c1.86,0,3.4,1.55,3.4,3.4l-1.24,76.41,1.24,76.1c0,1.86-1.55,3.4-3.4,3.4h-39.9Zm-36.81-27.84c22.58,0,34.34-17.01,34.96-50.73.31-34.03-12.06-52.59-34.03-52.9-23.51-.62-35.57,17.01-35.57,49.8,0,35.88,12.37,54.13,34.65,53.82Z"/><path class="cls-1" d="m1254.72,411.29c0,1.86-1.55,4.02-3.09,4.64-8.97,2.78-18.87,4.95-28.46,4.95-26.91,0-52.59-13.61-52.59-49.8l.31-79.81h-17.32c-1.86,0-3.4-1.55-3.4-3.4v-25.98c0-1.86,1.55-3.4,3.4-3.4h17.01l-.31-36.5c0-1.86,1.55-3.4,3.4-3.4h40.21c1.86,0,3.4,1.55,3.4,3.4l-.31,36.5h34.65c1.86,0,3.4,1.55,3.4,3.4v25.98c0,1.86-1.55,3.4-3.4,3.4h-34.96l.31,78.57c0,13.61,6.81,17.94,17.01,17.94,7.11,0,12.68-1.24,17.32-2.47,1.86-.31,3.4.93,3.4,2.47v23.51Z"/><path class="cls-2" d="m1378.77,417.78c-1.86,0-3.4-1.55-3.4-3.4l.62-15.16c-11.14,13.61-26.91,21.65-47.02,21.65-45.16,0-68.98-35.88-68.98-82.29s26.6-83.21,69.91-83.21c19.8,0,35.27,7.12,46.09,20.42l-.62-13.92c-.31-1.86,1.24-3.4,3.09-3.4h40.21c1.86,0,3.4,1.55,3.4,3.4l-1.24,76.41,1.24,76.1c0,1.86-1.55,3.4-3.4,3.4h-39.91Zm-36.81-27.84c22.58,0,34.34-17.01,34.96-50.73.31-34.03-12.06-52.59-34.03-52.9-23.51-.62-35.57,17.01-35.57,49.8,0,35.88,12.37,54.13,34.65,53.82Z"/><path class="cls-2" d="m1444.66,417.78c-1.86,0-3.4-1.55-3.4-3.4l1.24-76.1-1.24-76.41c0-1.86,1.55-3.4,3.4-3.4h40.83c1.86,0,3.4,1.55,3.4,3.4l-1.24,76.41,1.24,76.1c0,1.86-1.55,3.4-3.4,3.4h-40.83Zm.31-174.78c-1.86,0-3.4-1.55-3.4-3.4v-34.96c0-1.86,1.55-3.4,3.4-3.4h40.21c1.86,0,3.4,1.55,3.4,3.4v34.96c0,1.86-1.55,3.4-3.4,3.4h-40.21Z"/><path class="cls-1" d="m1641.4,414.38c0,1.86-1.55,3.4-3.4,3.4h-127.76c-1.86,0-3.4-1.55-3.4-3.4v-25.98c0-2.17.93-4.33,2.17-6.19l71.15-90.95h-63.42c-1.86,0-3.4-1.55-3.4-3.4v-25.98c0-1.86,1.55-3.4,3.4-3.4h116.62c1.86,0,3.4,1.55,3.4,3.4v26.6c0,2.17-.93,4.33-2.17,6.19l-71.77,90.33h75.17c1.86,0,3.4,1.55,3.4,3.4v25.98Z"/><path class="cls-1" d="m1803.81,363.96c1.86,0,3.4,1.55,3.09,3.4-4.33,29.08-32.17,54.44-76.41,54.44-53.21,0-81.98-34.96-81.98-83.21,0-50.73,30.32-84.14,81.05-84.14s81.05,34.34,82.29,89.71c0,1.86-1.55,3.4-3.4,3.4h-113.22c1.86,30.01,13.61,43.31,35.88,43.31,15.47,0,26.6-6.8,30.93-23.51.31-2.17,2.17-3.4,4.02-3.4h37.74Zm-73.93-78.88c-18.56,0-29.7,11.14-33.41,33.1h65.27c-1.86-17.01-11.45-33.1-31.86-33.1Z"/></svg>